# xmcd
#
# Track frame offsets:
#	150
#	11777
#	25009
#	37724
#	48450
#	58952
#	72031
#	82950
#	93618
#	103756
#	114377
#	120299
#	132599
#	144827
#	156848
#	170625
#
# Disc length: 2395 seconds
#
# Revision: 1
# Processed by: cddbd v1.5.2PL0 Copyright (c) Steve Scherf et al.
# Submitted via: audiograbber 1.83.01
#
DISCID=cf095910
DTITLE=Various Artist - Classic Country - the ultimate collection CD1
DYEAR=1900
DGENRE=Country
TTITLE0=Patsy Cline - Walkin' After Midnight
TTITLE1=Kenny Rogers - Ruby Don't Take Your Love To Town
TTITLE2=Lynn Anderson - Rose Garden
TTITLE3=Billie Jo Spears - I'm So Lonesome I Could Cry
TTITLE4=Jim Reeves - Hillbilly Waltz
TTITLE5=Hank Williams - Hey Good Lookin'
TTITLE6=Jonny Cash and The Tennesse Two - Cry Cry Cry
TTITLE7=Kitty Wells - Things I Might Have Been
TTITLE8=Don Williams - Takle My Hand For A While
TTITLE9=Patti Page - San Antonio Rose
TTITLE10=Willie Nelson - Just Now Falling
TTITLE11=Bill Munroe and His Bluegrass Boys - Mule Skinner Blues
TTITLE12=Frankie Lane - High Noon (Do Not Forsake Me)
TTITLE13=Waylon Jennings - Don't Think Twice
TTITLE14=Hank Snow - Aniversary Blue Yodel
TTITLE15=Faron Young - Hello Walls
EXTD=
EXTT0=
EXTT1=
EXTT2=
EXTT3=
EXTT4=
EXTT5=
EXTT6=
EXTT7=
EXTT8=
EXTT9=
EXTT10=
EXTT11=
EXTT12=
EXTT13=
EXTT14=
EXTT15=
PLAYORDER=
